<svg width="16" height="14" viewBox="0 0 16 14" fill="none" xmlns="http://www.w3.org/2000/svg">
    <path d="M14.5455 13.2472V1.6108H1.45455V6.7017C1.45455 6.90777 1.38485 7.08049 1.24545 7.21989C1.10606 7.35928 0.933333 7.42898 0.727273 7.42898C0.521212 7.42898 0.348485 7.35928 0.209091 7.21989C0.069697 7.08049 0 6.90777 0 6.7017V1.6108C0 1.2108 0.142424 0.868371 0.427273 0.583523C0.712121 0.298674 1.05455 0.15625 1.45455 0.15625H14.5455C14.9455 0.15625 15.2879 0.298674 15.5727 0.583523C15.8576 0.868371 16 1.2108 16 1.6108V11.7926C16 12.1926 15.8576 12.535 15.5727 12.8199C15.2879 13.1047 14.9455 13.2472 14.5455 13.2472ZM5.81818 8.15625C5.01818 8.15625 4.33333 7.8714 3.76364 7.3017C3.19394 6.73201 2.90909 6.04716 2.90909 5.24716C2.90909 4.44716 3.19394 3.76231 3.76364 3.19261C4.33333 2.62292 5.01818 2.33807 5.81818 2.33807C6.61818 2.33807 7.30303 2.62292 7.87273 3.19261C8.44242 3.76231 8.72727 4.44716 8.72727 5.24716C8.72727 6.04716 8.44242 6.73201 7.87273 7.3017C7.30303 7.8714 6.61818 8.15625 5.81818 8.15625ZM1.45455 13.9744C1.05455 13.9744 0.712121 13.832 0.427273 13.5472C0.142424 13.2623 0 12.9199 0 12.5199V11.9381C0 11.5259 0.106061 11.1472 0.318182 10.8017C0.530303 10.4563 0.812121 10.1926 1.16364 10.0108C1.91515 9.63504 2.67879 9.35322 3.45455 9.16534C4.2303 8.97746 5.01818 8.88352 5.81818 8.88352C6.61818 8.88352 7.40606 8.97746 8.18182 9.16534C8.95758 9.35322 9.72121 9.63504 10.4727 10.0108C10.8242 10.1926 11.1061 10.4563 11.3182 10.8017C11.5303 11.1472 11.6364 11.5259 11.6364 11.9381V12.5199C11.6364 12.9199 11.4939 13.2623 11.2091 13.5472C10.9242 13.832 10.5818 13.9744 10.1818 13.9744H1.45455Z" fill="#CF102D"/>
</svg>
