<svg width="17" height="18" viewBox="0 0 17 18" fill="none" xmlns="http://www.w3.org/2000/svg">
<g id="fi-rr-comment-alt-middle" clip-path="url(#clip0_695_8829)">
<path id="Vector" d="M8.00631 16.0892C7.68898 16.0892 7.36964 15.9772 7.11498 15.7512L4.61631 13.6465H2.66764C1.19698 13.6465 0.000976841 12.4505 0.000976841 10.9798V2.97917C0.000310174 1.5085 1.19631 0.3125 2.66698 0.3125H13.3336C14.8043 0.3125 16.0003 1.5085 16.0003 2.97917V10.9792C16.0003 12.4498 14.8043 13.6458 13.3336 13.6458H11.4323L8.86764 15.7658C8.62631 15.9805 8.31764 16.0885 8.00564 16.0885L8.00631 16.0892ZM2.66698 1.64583C1.93164 1.64583 1.33364 2.24383 1.33364 2.97917V10.9792C1.33364 11.7145 1.93164 12.3125 2.66698 12.3125H4.85964C5.01698 12.3125 5.16898 12.3678 5.28964 12.4692L7.98764 14.7425L10.7676 12.4652C10.8876 12.3665 11.0376 12.3125 11.193 12.3125H13.3343C14.0696 12.3125 14.6676 11.7145 14.6676 10.9792V2.97917C14.6676 2.24383 14.0696 1.64583 13.3343 1.64583H2.66698Z" fill="#151A2D"/>
</g>
<defs>
<clipPath id="clip0_695_8829">
<rect width="18" height="18" fill="white" transform="translate(0 0.3125)"/>
</clipPath>
</defs>
</svg>
