<svg width="512" height="512" viewBox="0 0 512 512" fill="none" xmlns="http://www.w3.org/2000/svg">
<g clip-path="url(#clip0_409_12076)">
<path d="M256.192 504.853C246.037 504.853 235.819 501.269 227.669 494.037L147.712 426.688H85.3548C38.2935 426.688 0.0214933 388.416 0.0214933 341.355V85.3333C0.000159957 38.272 38.2722 0 85.3335 0H426.667C473.728 0 512 38.272 512 85.3333V341.333C512 388.395 473.728 426.667 426.667 426.667H365.824L283.755 494.507C276.032 501.376 266.155 504.832 256.171 504.832L256.192 504.853ZM85.3335 42.6667C61.8028 42.6667 42.6668 61.8027 42.6668 85.3333V341.333C42.6668 364.864 61.8028 384 85.3335 384H155.499C160.533 384 165.397 385.771 169.259 389.013L255.595 461.76L344.555 388.885C348.395 385.728 353.195 384 358.165 384H426.688C450.219 384 469.355 364.864 469.355 341.333V85.3333C469.355 61.8027 450.219 42.6667 426.688 42.6667H85.3335Z" fill="#151A2D"/>
</g>
<defs>
<clipPath id="clip0_409_12076">
<rect width="512" height="512" fill="white"/>
</clipPath>
</defs>
</svg>
