<svg width="512" height="512" viewBox="0 0 512 512" fill="none" xmlns="http://www.w3.org/2000/svg">
<g clip-path="url(#clip0_409_11764)">
<path d="M373.286 31C349.273 31.3735 325.784 38.0767 305.191 50.4326C284.598 62.7885 267.63 80.3597 256 101.372C244.37 80.3597 227.402 62.7885 206.809 50.4326C186.216 38.0767 162.727 31.3735 138.714 31C100.435 32.6631 64.3697 49.4087 38.3978 77.5782C12.4259 105.748 -1.34153 143.051 0.103235 181.339C0.103235 278.303 102.163 384.202 187.761 456.002C206.872 472.062 231.036 480.867 256 480.867C280.964 480.867 305.128 472.062 324.239 456.002C409.837 384.202 511.897 278.303 511.897 181.339C513.341 143.051 499.574 105.748 473.602 77.5782C447.63 49.4087 411.565 32.6631 373.286 31ZM296.837 423.375C285.406 433.001 270.943 438.279 256 438.279C241.057 438.279 226.594 433.001 215.163 423.375C105.597 331.444 42.7527 243.245 42.7527 181.339C41.2949 154.358 50.5654 127.894 68.542 107.72C86.5187 87.5462 111.743 75.2989 138.714 73.6495C165.685 75.2989 190.909 87.5462 208.886 107.72C226.863 127.894 236.133 154.358 234.675 181.339C234.675 186.995 236.922 192.419 240.921 196.418C244.92 200.417 250.344 202.664 256 202.664C261.656 202.664 267.08 200.417 271.079 196.418C275.078 192.419 277.325 186.995 277.325 181.339C275.867 154.358 285.137 127.894 303.114 107.72C321.091 87.5462 346.315 75.2989 373.286 73.6495C400.257 75.2989 425.481 87.5462 443.458 107.72C461.435 127.894 470.705 154.358 469.247 181.339C469.247 243.245 406.403 331.444 296.837 423.29V423.375Z" fill="#151A2D"/>
</g>
<defs>
<clipPath id="clip0_409_11764">
<rect width="512" height="512" fill="white"/>
</clipPath>
</defs>
</svg>
