<svg width="711" height="558" viewBox="0 0 711 558" fill="none" xmlns="http://www.w3.org/2000/svg">
<ellipse cx="275.135" cy="62.234" rx="2.94167" ry="2.92398" fill="white" fill-opacity="0.1"/>
<ellipse cx="345.735" cy="62.234" rx="2.94167" ry="2.92398" fill="white" fill-opacity="0.1"/>
<ellipse cx="310.435" cy="62.234" rx="2.94167" ry="2.92398" fill="white" fill-opacity="0.1"/>
<ellipse cx="381.035" cy="62.234" rx="2.94167" ry="2.92398" fill="white" fill-opacity="0.1"/>
<ellipse cx="425.16" cy="62.234" rx="2.94167" ry="2.92398" fill="white" fill-opacity="0.1"/>
<ellipse cx="292.785" cy="62.234" rx="2.94167" ry="2.92398" fill="white" fill-opacity="0.1"/>
<ellipse cx="363.385" cy="62.234" rx="2.94167" ry="2.92398" fill="white" fill-opacity="0.1"/>
<ellipse cx="328.085" cy="62.234" rx="2.94167" ry="2.92398" fill="white" fill-opacity="0.1"/>
<ellipse cx="398.685" cy="62.234" rx="2.94167" ry="2.92398" fill="white" fill-opacity="0.1"/>
<ellipse cx="442.81" cy="62.234" rx="2.94167" ry="2.92398" fill="white" fill-opacity="0.1"/>
<ellipse cx="283.96" cy="62.234" rx="2.94167" ry="2.92398" fill="white" fill-opacity="0.1"/>
<ellipse cx="354.56" cy="62.234" rx="2.94167" ry="2.92398" fill="white" fill-opacity="0.1"/>
<ellipse cx="319.26" cy="62.234" rx="2.94167" ry="2.92398" fill="white" fill-opacity="0.1"/>
<ellipse cx="389.86" cy="62.234" rx="2.94167" ry="2.92398" fill="white" fill-opacity="0.1"/>
<ellipse cx="433.985" cy="62.234" rx="2.94167" ry="2.92398" fill="white" fill-opacity="0.1"/>
<ellipse cx="301.61" cy="62.234" rx="2.94167" ry="2.92398" fill="white" fill-opacity="0.1"/>
<ellipse cx="372.21" cy="62.234" rx="2.94167" ry="2.92398" fill="white" fill-opacity="0.1"/>
<ellipse cx="416.335" cy="62.234" rx="2.94167" ry="2.92398" fill="white" fill-opacity="0.1"/>
<ellipse cx="336.91" cy="62.234" rx="2.94167" ry="2.92398" fill="white" fill-opacity="0.1"/>
<ellipse cx="407.51" cy="62.234" rx="2.94167" ry="2.92398" fill="white" fill-opacity="0.1"/>
<ellipse cx="275.135" cy="97.3219" rx="2.94167" ry="2.92398" fill="white" fill-opacity="0.1"/>
<ellipse cx="345.735" cy="97.3219" rx="2.94167" ry="2.92398" fill="white" fill-opacity="0.1"/>
<ellipse cx="310.435" cy="97.3219" rx="2.94167" ry="2.92398" fill="white" fill-opacity="0.1"/>
<ellipse cx="381.035" cy="97.3219" rx="2.94167" ry="2.92398" fill="white" fill-opacity="0.1"/>
<ellipse cx="425.16" cy="97.3219" rx="2.94167" ry="2.92398" fill="white" fill-opacity="0.1"/>
<ellipse cx="292.785" cy="97.3219" rx="2.94167" ry="2.92398" fill="white" fill-opacity="0.1"/>
<ellipse cx="363.385" cy="97.3219" rx="2.94167" ry="2.92398" fill="white" fill-opacity="0.1"/>
<ellipse cx="328.085" cy="97.3219" rx="2.94167" ry="2.92398" fill="white" fill-opacity="0.1"/>
<ellipse cx="398.685" cy="97.3219" rx="2.94167" ry="2.92398" fill="white" fill-opacity="0.1"/>
<ellipse cx="442.81" cy="97.3219" rx="2.94167" ry="2.92398" fill="white" fill-opacity="0.1"/>
<ellipse cx="283.96" cy="97.3219" rx="2.94167" ry="2.92398" fill="white" fill-opacity="0.1"/>
<ellipse cx="354.56" cy="97.3219" rx="2.94167" ry="2.92398" fill="white" fill-opacity="0.1"/>
<ellipse cx="319.26" cy="97.3219" rx="2.94167" ry="2.92398" fill="white" fill-opacity="0.1"/>
<ellipse cx="389.86" cy="97.3219" rx="2.94167" ry="2.92398" fill="white" fill-opacity="0.1"/>
<ellipse cx="433.985" cy="97.3219" rx="2.94167" ry="2.92398" fill="white" fill-opacity="0.1"/>
<ellipse cx="301.61" cy="97.3219" rx="2.94167" ry="2.92398" fill="white" fill-opacity="0.1"/>
<ellipse cx="372.21" cy="97.3219" rx="2.94167" ry="2.92398" fill="white" fill-opacity="0.1"/>
<ellipse cx="416.335" cy="97.3219" rx="2.94167" ry="2.92398" fill="white" fill-opacity="0.1"/>
<ellipse cx="336.91" cy="97.3219" rx="2.94167" ry="2.92398" fill="white" fill-opacity="0.1"/>
<ellipse cx="407.51" cy="97.3219" rx="2.94167" ry="2.92398" fill="white" fill-opacity="0.1"/>
<ellipse cx="275.135" cy="79.778" rx="2.94167" ry="2.92398" fill="white" fill-opacity="0.1"/>
<ellipse cx="345.735" cy="79.778" rx="2.94167" ry="2.92398" fill="white" fill-opacity="0.1"/>
<ellipse cx="310.435" cy="79.778" rx="2.94167" ry="2.92398" fill="white" fill-opacity="0.1"/>
<ellipse cx="381.035" cy="79.778" rx="2.94167" ry="2.92398" fill="white" fill-opacity="0.1"/>
<ellipse cx="425.16" cy="79.778" rx="2.94167" ry="2.92398" fill="white" fill-opacity="0.1"/>
<ellipse cx="292.785" cy="79.778" rx="2.94167" ry="2.92398" fill="white" fill-opacity="0.1"/>
<ellipse cx="363.385" cy="79.778" rx="2.94167" ry="2.92398" fill="white" fill-opacity="0.1"/>
<ellipse cx="328.085" cy="79.778" rx="2.94167" ry="2.92398" fill="white" fill-opacity="0.1"/>
<ellipse cx="398.685" cy="79.778" rx="2.94167" ry="2.92398" fill="white" fill-opacity="0.1"/>
<ellipse cx="442.81" cy="79.778" rx="2.94167" ry="2.92398" fill="white" fill-opacity="0.1"/>
<ellipse cx="283.96" cy="79.778" rx="2.94167" ry="2.92398" fill="white" fill-opacity="0.1"/>
<ellipse cx="354.56" cy="79.778" rx="2.94167" ry="2.92398" fill="white" fill-opacity="0.1"/>
<ellipse cx="319.26" cy="79.778" rx="2.94167" ry="2.92398" fill="white" fill-opacity="0.1"/>
<ellipse cx="389.86" cy="79.778" rx="2.94167" ry="2.92398" fill="white" fill-opacity="0.1"/>
<ellipse cx="433.985" cy="79.778" rx="2.94167" ry="2.92398" fill="white" fill-opacity="0.1"/>
<ellipse cx="301.61" cy="79.778" rx="2.94167" ry="2.92398" fill="white" fill-opacity="0.1"/>
<ellipse cx="372.21" cy="79.778" rx="2.94167" ry="2.92398" fill="white" fill-opacity="0.1"/>
<ellipse cx="416.335" cy="79.778" rx="2.94167" ry="2.92398" fill="white" fill-opacity="0.1"/>
<ellipse cx="336.91" cy="79.778" rx="2.94167" ry="2.92398" fill="white" fill-opacity="0.1"/>
<ellipse cx="407.51" cy="79.778" rx="2.94167" ry="2.92398" fill="white" fill-opacity="0.1"/>
<ellipse cx="275.135" cy="114.865" rx="2.94167" ry="2.92398" fill="white" fill-opacity="0.1"/>
<ellipse cx="345.735" cy="114.865" rx="2.94167" ry="2.92398" fill="white" fill-opacity="0.1"/>
<ellipse cx="310.435" cy="114.865" rx="2.94167" ry="2.92398" fill="white" fill-opacity="0.1"/>
<ellipse cx="381.035" cy="114.865" rx="2.94167" ry="2.92398" fill="white" fill-opacity="0.1"/>
<ellipse cx="425.16" cy="114.865" rx="2.94167" ry="2.92398" fill="white" fill-opacity="0.1"/>
<ellipse cx="292.785" cy="114.865" rx="2.94167" ry="2.92398" fill="white" fill-opacity="0.1"/>
<ellipse cx="363.385" cy="114.865" rx="2.94167" ry="2.92398" fill="white" fill-opacity="0.1"/>
<ellipse cx="328.085" cy="114.865" rx="2.94167" ry="2.92398" fill="white" fill-opacity="0.1"/>
<ellipse cx="398.685" cy="114.865" rx="2.94167" ry="2.92398" fill="white" fill-opacity="0.1"/>
<ellipse cx="442.81" cy="114.865" rx="2.94167" ry="2.92398" fill="white" fill-opacity="0.1"/>
<ellipse cx="283.96" cy="114.865" rx="2.94167" ry="2.92398" fill="white" fill-opacity="0.1"/>
<ellipse cx="354.56" cy="114.865" rx="2.94167" ry="2.92398" fill="white" fill-opacity="0.1"/>
<ellipse cx="319.26" cy="114.865" rx="2.94167" ry="2.92398" fill="white" fill-opacity="0.1"/>
<ellipse cx="389.86" cy="114.865" rx="2.94167" ry="2.92398" fill="white" fill-opacity="0.1"/>
<ellipse cx="433.985" cy="114.865" rx="2.94167" ry="2.92398" fill="white" fill-opacity="0.1"/>
<ellipse cx="301.61" cy="114.865" rx="2.94167" ry="2.92398" fill="white" fill-opacity="0.1"/>
<ellipse cx="372.21" cy="114.865" rx="2.94167" ry="2.92398" fill="white" fill-opacity="0.1"/>
<ellipse cx="416.335" cy="114.865" rx="2.94167" ry="2.92398" fill="white" fill-opacity="0.1"/>
<ellipse cx="336.91" cy="114.865" rx="2.94167" ry="2.92398" fill="white" fill-opacity="0.1"/>
<ellipse cx="407.51" cy="114.865" rx="2.94167" ry="2.92398" fill="white" fill-opacity="0.1"/>
<ellipse cx="275.135" cy="71.006" rx="2.94167" ry="2.92398" fill="white" fill-opacity="0.1"/>
<ellipse cx="345.735" cy="71.006" rx="2.94167" ry="2.92398" fill="white" fill-opacity="0.1"/>
<ellipse cx="310.435" cy="71.006" rx="2.94167" ry="2.92398" fill="white" fill-opacity="0.1"/>
<ellipse cx="381.035" cy="71.006" rx="2.94167" ry="2.92398" fill="white" fill-opacity="0.1"/>
<ellipse cx="425.16" cy="71.006" rx="2.94167" ry="2.92398" fill="white" fill-opacity="0.1"/>
<ellipse cx="292.785" cy="71.006" rx="2.94167" ry="2.92398" fill="white" fill-opacity="0.1"/>
<ellipse cx="363.385" cy="71.006" rx="2.94167" ry="2.92398" fill="white" fill-opacity="0.1"/>
<ellipse cx="328.085" cy="71.006" rx="2.94167" ry="2.92398" fill="white" fill-opacity="0.1"/>
<ellipse cx="398.685" cy="71.006" rx="2.94167" ry="2.92398" fill="white" fill-opacity="0.1"/>
<ellipse cx="442.81" cy="71.006" rx="2.94167" ry="2.92398" fill="white" fill-opacity="0.1"/>
<ellipse cx="283.96" cy="71.006" rx="2.94167" ry="2.92398" fill="white" fill-opacity="0.1"/>
<ellipse cx="354.56" cy="71.006" rx="2.94167" ry="2.92398" fill="white" fill-opacity="0.1"/>
<ellipse cx="319.26" cy="71.006" rx="2.94167" ry="2.92398" fill="white" fill-opacity="0.1"/>
<ellipse cx="389.86" cy="71.006" rx="2.94167" ry="2.92398" fill="white" fill-opacity="0.1"/>
<ellipse cx="433.985" cy="71.006" rx="2.94167" ry="2.92398" fill="white" fill-opacity="0.1"/>
<ellipse cx="301.61" cy="71.006" rx="2.94167" ry="2.92398" fill="white" fill-opacity="0.1"/>
<ellipse cx="372.21" cy="71.006" rx="2.94167" ry="2.92398" fill="white" fill-opacity="0.1"/>
<ellipse cx="416.335" cy="71.006" rx="2.94167" ry="2.92398" fill="white" fill-opacity="0.1"/>
<ellipse cx="336.91" cy="71.006" rx="2.94167" ry="2.92398" fill="white" fill-opacity="0.1"/>
<ellipse cx="407.51" cy="71.006" rx="2.94167" ry="2.92398" fill="white" fill-opacity="0.1"/>
<ellipse cx="275.135" cy="106.094" rx="2.94167" ry="2.92398" fill="white" fill-opacity="0.1"/>
<ellipse cx="345.735" cy="106.094" rx="2.94167" ry="2.92398" fill="white" fill-opacity="0.1"/>
<ellipse cx="310.435" cy="106.094" rx="2.94167" ry="2.92398" fill="white" fill-opacity="0.1"/>
<ellipse cx="381.035" cy="106.094" rx="2.94167" ry="2.92398" fill="white" fill-opacity="0.1"/>
<ellipse cx="425.16" cy="106.094" rx="2.94167" ry="2.92398" fill="white" fill-opacity="0.1"/>
<ellipse cx="292.785" cy="106.094" rx="2.94167" ry="2.92398" fill="white" fill-opacity="0.1"/>
<ellipse cx="363.385" cy="106.094" rx="2.94167" ry="2.92398" fill="white" fill-opacity="0.1"/>
<ellipse cx="328.085" cy="106.094" rx="2.94167" ry="2.92398" fill="white" fill-opacity="0.1"/>
<ellipse cx="398.685" cy="106.094" rx="2.94167" ry="2.92398" fill="white" fill-opacity="0.1"/>
<ellipse cx="442.81" cy="106.094" rx="2.94167" ry="2.92398" fill="white" fill-opacity="0.1"/>
<ellipse cx="283.96" cy="106.094" rx="2.94167" ry="2.92398" fill="white" fill-opacity="0.1"/>
<ellipse cx="354.56" cy="106.094" rx="2.94167" ry="2.92398" fill="white" fill-opacity="0.1"/>
<ellipse cx="319.26" cy="106.094" rx="2.94167" ry="2.92398" fill="white" fill-opacity="0.1"/>
<ellipse cx="389.86" cy="106.094" rx="2.94167" ry="2.92398" fill="white" fill-opacity="0.1"/>
<ellipse cx="433.985" cy="106.094" rx="2.94167" ry="2.92398" fill="white" fill-opacity="0.1"/>
<ellipse cx="301.61" cy="106.094" rx="2.94167" ry="2.92398" fill="white" fill-opacity="0.1"/>
<ellipse cx="372.21" cy="106.094" rx="2.94167" ry="2.92398" fill="white" fill-opacity="0.1"/>
<ellipse cx="416.335" cy="106.094" rx="2.94167" ry="2.92398" fill="white" fill-opacity="0.1"/>
<ellipse cx="336.91" cy="106.094" rx="2.94167" ry="2.92398" fill="white" fill-opacity="0.1"/>
<ellipse cx="407.51" cy="106.094" rx="2.94167" ry="2.92398" fill="white" fill-opacity="0.1"/>
<ellipse cx="275.135" cy="88.55" rx="2.94167" ry="2.92398" fill="white" fill-opacity="0.1"/>
<ellipse cx="345.735" cy="88.55" rx="2.94167" ry="2.92398" fill="white" fill-opacity="0.1"/>
<ellipse cx="310.435" cy="88.55" rx="2.94167" ry="2.92398" fill="white" fill-opacity="0.1"/>
<ellipse cx="381.035" cy="88.55" rx="2.94167" ry="2.92398" fill="white" fill-opacity="0.1"/>
<ellipse cx="425.16" cy="88.55" rx="2.94167" ry="2.92398" fill="white" fill-opacity="0.1"/>
<ellipse cx="292.785" cy="88.55" rx="2.94167" ry="2.92398" fill="white" fill-opacity="0.1"/>
<ellipse cx="363.385" cy="88.55" rx="2.94167" ry="2.92398" fill="white" fill-opacity="0.1"/>
<ellipse cx="328.085" cy="88.55" rx="2.94167" ry="2.92398" fill="white" fill-opacity="0.1"/>
<ellipse cx="398.685" cy="88.55" rx="2.94167" ry="2.92398" fill="white" fill-opacity="0.1"/>
<ellipse cx="442.81" cy="88.55" rx="2.94167" ry="2.92398" fill="white" fill-opacity="0.1"/>
<ellipse cx="283.96" cy="88.55" rx="2.94167" ry="2.92398" fill="white" fill-opacity="0.1"/>
<ellipse cx="354.56" cy="88.55" rx="2.94167" ry="2.92398" fill="white" fill-opacity="0.1"/>
<ellipse cx="319.26" cy="88.55" rx="2.94167" ry="2.92398" fill="white" fill-opacity="0.1"/>
<ellipse cx="389.86" cy="88.55" rx="2.94167" ry="2.92398" fill="white" fill-opacity="0.1"/>
<ellipse cx="433.985" cy="88.55" rx="2.94167" ry="2.92398" fill="white" fill-opacity="0.1"/>
<ellipse cx="301.61" cy="88.55" rx="2.94167" ry="2.92398" fill="white" fill-opacity="0.1"/>
<ellipse cx="372.21" cy="88.55" rx="2.94167" ry="2.92398" fill="white" fill-opacity="0.1"/>
<ellipse cx="416.335" cy="88.55" rx="2.94167" ry="2.92398" fill="white" fill-opacity="0.1"/>
<ellipse cx="336.91" cy="88.55" rx="2.94167" ry="2.92398" fill="white" fill-opacity="0.1"/>
<ellipse cx="407.51" cy="88.55" rx="2.94167" ry="2.92398" fill="white" fill-opacity="0.1"/>
<ellipse cx="275.135" cy="123.637" rx="2.94167" ry="2.92398" fill="white" fill-opacity="0.1"/>
<ellipse cx="345.735" cy="123.637" rx="2.94167" ry="2.92398" fill="white" fill-opacity="0.1"/>
<ellipse cx="310.435" cy="123.637" rx="2.94167" ry="2.92398" fill="white" fill-opacity="0.1"/>
<ellipse cx="381.035" cy="123.637" rx="2.94167" ry="2.92398" fill="white" fill-opacity="0.1"/>
<ellipse cx="425.16" cy="123.637" rx="2.94167" ry="2.92398" fill="white" fill-opacity="0.1"/>
<ellipse cx="292.785" cy="123.637" rx="2.94167" ry="2.92398" fill="white" fill-opacity="0.1"/>
<ellipse cx="363.385" cy="123.637" rx="2.94167" ry="2.92398" fill="white" fill-opacity="0.1"/>
<ellipse cx="328.085" cy="123.637" rx="2.94167" ry="2.92398" fill="white" fill-opacity="0.1"/>
<ellipse cx="398.685" cy="123.637" rx="2.94167" ry="2.92398" fill="white" fill-opacity="0.1"/>
<ellipse cx="442.81" cy="123.637" rx="2.94167" ry="2.92398" fill="white" fill-opacity="0.1"/>
<ellipse cx="283.96" cy="123.637" rx="2.94167" ry="2.92398" fill="white" fill-opacity="0.1"/>
<ellipse cx="354.56" cy="123.637" rx="2.94167" ry="2.92398" fill="white" fill-opacity="0.1"/>
<ellipse cx="319.26" cy="123.637" rx="2.94167" ry="2.92398" fill="white" fill-opacity="0.1"/>
<ellipse cx="389.86" cy="123.637" rx="2.94167" ry="2.92398" fill="white" fill-opacity="0.1"/>
<ellipse cx="433.985" cy="123.637" rx="2.94167" ry="2.92398" fill="white" fill-opacity="0.1"/>
<ellipse cx="301.61" cy="123.637" rx="2.94167" ry="2.92398" fill="white" fill-opacity="0.1"/>
<ellipse cx="372.21" cy="123.637" rx="2.94167" ry="2.92398" fill="white" fill-opacity="0.1"/>
<ellipse cx="416.335" cy="123.637" rx="2.94167" ry="2.92398" fill="white" fill-opacity="0.1"/>
<ellipse cx="336.91" cy="123.637" rx="2.94167" ry="2.92398" fill="white" fill-opacity="0.1"/>
<ellipse cx="407.51" cy="123.637" rx="2.94167" ry="2.92398" fill="white" fill-opacity="0.1"/>
<ellipse cx="275.135" cy="132.409" rx="2.94167" ry="2.92398" fill="white" fill-opacity="0.1"/>
<ellipse cx="345.735" cy="132.409" rx="2.94167" ry="2.92398" fill="white" fill-opacity="0.1"/>
<ellipse cx="310.435" cy="132.409" rx="2.94167" ry="2.92398" fill="white" fill-opacity="0.1"/>
<ellipse cx="381.035" cy="132.409" rx="2.94167" ry="2.92398" fill="white" fill-opacity="0.1"/>
<ellipse cx="425.16" cy="132.409" rx="2.94167" ry="2.92398" fill="white" fill-opacity="0.1"/>
<ellipse cx="292.785" cy="132.409" rx="2.94167" ry="2.92398" fill="white" fill-opacity="0.1"/>
<ellipse cx="363.385" cy="132.409" rx="2.94167" ry="2.92398" fill="white" fill-opacity="0.1"/>
<ellipse cx="328.085" cy="132.409" rx="2.94167" ry="2.92398" fill="white" fill-opacity="0.1"/>
<ellipse cx="398.685" cy="132.409" rx="2.94167" ry="2.92398" fill="white" fill-opacity="0.1"/>
<ellipse cx="442.81" cy="132.409" rx="2.94167" ry="2.92398" fill="white" fill-opacity="0.1"/>
<ellipse cx="283.96" cy="132.409" rx="2.94167" ry="2.92398" fill="white" fill-opacity="0.1"/>
<ellipse cx="354.56" cy="132.409" rx="2.94167" ry="2.92398" fill="white" fill-opacity="0.1"/>
<ellipse cx="319.26" cy="132.409" rx="2.94167" ry="2.92398" fill="white" fill-opacity="0.1"/>
<ellipse cx="389.86" cy="132.409" rx="2.94167" ry="2.92398" fill="white" fill-opacity="0.1"/>
<ellipse cx="433.985" cy="132.409" rx="2.94167" ry="2.92398" fill="white" fill-opacity="0.1"/>
<ellipse cx="301.61" cy="132.409" rx="2.94167" ry="2.92398" fill="white" fill-opacity="0.1"/>
<ellipse cx="372.21" cy="132.409" rx="2.94167" ry="2.92398" fill="white" fill-opacity="0.1"/>
<ellipse cx="416.335" cy="132.409" rx="2.94167" ry="2.92398" fill="white" fill-opacity="0.1"/>
<ellipse cx="336.91" cy="132.409" rx="2.94167" ry="2.92398" fill="white" fill-opacity="0.1"/>
<ellipse cx="407.51" cy="132.409" rx="2.94167" ry="2.92398" fill="white" fill-opacity="0.1"/>
<ellipse cx="275.135" cy="167.497" rx="2.94167" ry="2.92398" fill="white" fill-opacity="0.1"/>
<ellipse cx="345.735" cy="167.497" rx="2.94167" ry="2.92398" fill="white" fill-opacity="0.1"/>
<ellipse cx="310.435" cy="167.497" rx="2.94167" ry="2.92398" fill="white" fill-opacity="0.1"/>
<ellipse cx="381.035" cy="167.497" rx="2.94167" ry="2.92398" fill="white" fill-opacity="0.1"/>
<ellipse cx="425.16" cy="167.497" rx="2.94167" ry="2.92398" fill="white" fill-opacity="0.1"/>
<ellipse cx="292.785" cy="167.497" rx="2.94167" ry="2.92398" fill="white" fill-opacity="0.1"/>
<ellipse cx="363.385" cy="167.497" rx="2.94167" ry="2.92398" fill="white" fill-opacity="0.1"/>
<ellipse cx="328.085" cy="167.497" rx="2.94167" ry="2.92398" fill="white" fill-opacity="0.1"/>
<ellipse cx="398.685" cy="167.497" rx="2.94167" ry="2.92398" fill="white" fill-opacity="0.1"/>
<ellipse cx="442.81" cy="167.497" rx="2.94167" ry="2.92398" fill="white" fill-opacity="0.1"/>
<ellipse cx="283.96" cy="167.497" rx="2.94167" ry="2.92398" fill="white" fill-opacity="0.1"/>
<ellipse cx="354.56" cy="167.497" rx="2.94167" ry="2.92398" fill="white" fill-opacity="0.1"/>
<ellipse cx="319.26" cy="167.497" rx="2.94167" ry="2.92398" fill="white" fill-opacity="0.1"/>
<ellipse cx="389.86" cy="167.497" rx="2.94167" ry="2.92398" fill="white" fill-opacity="0.1"/>
<ellipse cx="433.985" cy="167.497" rx="2.94167" ry="2.92398" fill="white" fill-opacity="0.1"/>
<ellipse cx="301.61" cy="167.497" rx="2.94167" ry="2.92398" fill="white" fill-opacity="0.1"/>
<ellipse cx="372.21" cy="167.497" rx="2.94167" ry="2.92398" fill="white" fill-opacity="0.1"/>
<ellipse cx="416.335" cy="167.497" rx="2.94167" ry="2.92398" fill="white" fill-opacity="0.1"/>
<ellipse cx="336.91" cy="167.497" rx="2.94167" ry="2.92398" fill="white" fill-opacity="0.1"/>
<ellipse cx="407.51" cy="167.497" rx="2.94167" ry="2.92398" fill="white" fill-opacity="0.1"/>
<ellipse cx="275.135" cy="149.953" rx="2.94167" ry="2.92398" fill="white" fill-opacity="0.1"/>
<ellipse cx="345.735" cy="149.953" rx="2.94167" ry="2.92398" fill="white" fill-opacity="0.1"/>
<ellipse cx="310.435" cy="149.953" rx="2.94167" ry="2.92398" fill="white" fill-opacity="0.1"/>
<ellipse cx="381.035" cy="149.953" rx="2.94167" ry="2.92398" fill="white" fill-opacity="0.1"/>
<ellipse cx="425.16" cy="149.953" rx="2.94167" ry="2.92398" fill="white" fill-opacity="0.1"/>
<ellipse cx="292.785" cy="149.953" rx="2.94167" ry="2.92398" fill="white" fill-opacity="0.1"/>
<ellipse cx="363.385" cy="149.953" rx="2.94167" ry="2.92398" fill="white" fill-opacity="0.1"/>
<ellipse cx="328.085" cy="149.953" rx="2.94167" ry="2.92398" fill="white" fill-opacity="0.1"/>
<ellipse cx="398.685" cy="149.953" rx="2.94167" ry="2.92398" fill="white" fill-opacity="0.1"/>
<ellipse cx="442.81" cy="149.953" rx="2.94167" ry="2.92398" fill="white" fill-opacity="0.1"/>
<ellipse cx="283.96" cy="149.953" rx="2.94167" ry="2.92398" fill="white" fill-opacity="0.1"/>
<ellipse cx="354.56" cy="149.953" rx="2.94167" ry="2.92398" fill="white" fill-opacity="0.1"/>
<ellipse cx="319.26" cy="149.953" rx="2.94167" ry="2.92398" fill="white" fill-opacity="0.1"/>
<ellipse cx="389.86" cy="149.953" rx="2.94167" ry="2.92398" fill="white" fill-opacity="0.1"/>
<ellipse cx="433.985" cy="149.953" rx="2.94167" ry="2.92398" fill="white" fill-opacity="0.1"/>
<ellipse cx="301.61" cy="149.953" rx="2.94167" ry="2.92398" fill="white" fill-opacity="0.1"/>
<ellipse cx="372.21" cy="149.953" rx="2.94167" ry="2.92398" fill="white" fill-opacity="0.1"/>
<ellipse cx="416.335" cy="149.953" rx="2.94167" ry="2.92398" fill="white" fill-opacity="0.1"/>
<ellipse cx="336.91" cy="149.953" rx="2.94167" ry="2.92398" fill="white" fill-opacity="0.1"/>
<ellipse cx="407.51" cy="149.953" rx="2.94167" ry="2.92398" fill="white" fill-opacity="0.1"/>
<ellipse cx="275.135" cy="185.041" rx="2.94167" ry="2.92398" fill="white" fill-opacity="0.1"/>
<ellipse cx="345.735" cy="185.041" rx="2.94167" ry="2.92398" fill="white" fill-opacity="0.1"/>
<ellipse cx="310.435" cy="185.041" rx="2.94167" ry="2.92398" fill="white" fill-opacity="0.1"/>
<ellipse cx="381.035" cy="185.041" rx="2.94167" ry="2.92398" fill="white" fill-opacity="0.1"/>
<ellipse cx="425.16" cy="185.041" rx="2.94167" ry="2.92398" fill="white" fill-opacity="0.1"/>
<ellipse cx="292.785" cy="185.041" rx="2.94167" ry="2.92398" fill="white" fill-opacity="0.1"/>
<ellipse cx="363.385" cy="185.041" rx="2.94167" ry="2.92398" fill="white" fill-opacity="0.1"/>
<ellipse cx="328.085" cy="185.041" rx="2.94167" ry="2.92398" fill="white" fill-opacity="0.1"/>
<ellipse cx="398.685" cy="185.041" rx="2.94167" ry="2.92398" fill="white" fill-opacity="0.1"/>
<ellipse cx="442.81" cy="185.041" rx="2.94167" ry="2.92398" fill="white" fill-opacity="0.1"/>
<ellipse cx="283.96" cy="185.041" rx="2.94167" ry="2.92398" fill="white" fill-opacity="0.1"/>
<ellipse cx="354.56" cy="185.041" rx="2.94167" ry="2.92398" fill="white" fill-opacity="0.1"/>
<ellipse cx="319.26" cy="185.041" rx="2.94167" ry="2.92398" fill="white" fill-opacity="0.1"/>
<ellipse cx="389.86" cy="185.041" rx="2.94167" ry="2.92398" fill="white" fill-opacity="0.1"/>
<ellipse cx="433.985" cy="185.041" rx="2.94167" ry="2.92398" fill="white" fill-opacity="0.1"/>
<ellipse cx="301.61" cy="185.041" rx="2.94167" ry="2.92398" fill="white" fill-opacity="0.1"/>
<ellipse cx="372.21" cy="185.041" rx="2.94167" ry="2.92398" fill="white" fill-opacity="0.1"/>
<ellipse cx="416.335" cy="185.041" rx="2.94167" ry="2.92398" fill="white" fill-opacity="0.1"/>
<ellipse cx="336.91" cy="185.041" rx="2.94167" ry="2.92398" fill="white" fill-opacity="0.1"/>
<ellipse cx="407.51" cy="185.041" rx="2.94167" ry="2.92398" fill="white" fill-opacity="0.1"/>
<ellipse cx="275.135" cy="141.181" rx="2.94167" ry="2.92398" fill="white" fill-opacity="0.1"/>
<ellipse cx="345.735" cy="141.181" rx="2.94167" ry="2.92398" fill="white" fill-opacity="0.1"/>
<ellipse cx="310.435" cy="141.181" rx="2.94167" ry="2.92398" fill="white" fill-opacity="0.1"/>
<ellipse cx="381.035" cy="141.181" rx="2.94167" ry="2.92398" fill="white" fill-opacity="0.1"/>
<ellipse cx="425.16" cy="141.181" rx="2.94167" ry="2.92398" fill="white" fill-opacity="0.1"/>
<ellipse cx="292.785" cy="141.181" rx="2.94167" ry="2.92398" fill="white" fill-opacity="0.1"/>
<ellipse cx="363.385" cy="141.181" rx="2.94167" ry="2.92398" fill="white" fill-opacity="0.1"/>
<ellipse cx="328.085" cy="141.181" rx="2.94167" ry="2.92398" fill="white" fill-opacity="0.1"/>
<ellipse cx="398.685" cy="141.181" rx="2.94167" ry="2.92398" fill="white" fill-opacity="0.1"/>
<ellipse cx="442.81" cy="141.181" rx="2.94167" ry="2.92398" fill="white" fill-opacity="0.1"/>
<ellipse cx="283.96" cy="141.181" rx="2.94167" ry="2.92398" fill="white" fill-opacity="0.1"/>
<ellipse cx="354.56" cy="141.181" rx="2.94167" ry="2.92398" fill="white" fill-opacity="0.1"/>
<ellipse cx="319.26" cy="141.181" rx="2.94167" ry="2.92398" fill="white" fill-opacity="0.1"/>
<ellipse cx="389.86" cy="141.181" rx="2.94167" ry="2.92398" fill="white" fill-opacity="0.1"/>
<ellipse cx="433.985" cy="141.181" rx="2.94167" ry="2.92398" fill="white" fill-opacity="0.1"/>
<ellipse cx="301.61" cy="141.181" rx="2.94167" ry="2.92398" fill="white" fill-opacity="0.1"/>
<ellipse cx="372.21" cy="141.181" rx="2.94167" ry="2.92398" fill="white" fill-opacity="0.1"/>
<ellipse cx="416.335" cy="141.181" rx="2.94167" ry="2.92398" fill="white" fill-opacity="0.1"/>
<ellipse cx="336.91" cy="141.181" rx="2.94167" ry="2.92398" fill="white" fill-opacity="0.1"/>
<ellipse cx="407.51" cy="141.181" rx="2.94167" ry="2.92398" fill="white" fill-opacity="0.1"/>
<ellipse cx="275.135" cy="176.269" rx="2.94167" ry="2.92398" fill="white" fill-opacity="0.1"/>
<ellipse cx="345.735" cy="176.269" rx="2.94167" ry="2.92398" fill="white" fill-opacity="0.1"/>
<ellipse cx="310.435" cy="176.269" rx="2.94167" ry="2.92398" fill="white" fill-opacity="0.1"/>
<ellipse cx="381.035" cy="176.269" rx="2.94167" ry="2.92398" fill="white" fill-opacity="0.1"/>
<ellipse cx="425.16" cy="176.269" rx="2.94167" ry="2.92398" fill="white" fill-opacity="0.1"/>
<ellipse cx="292.785" cy="176.269" rx="2.94167" ry="2.92398" fill="white" fill-opacity="0.1"/>
<ellipse cx="363.385" cy="176.269" rx="2.94167" ry="2.92398" fill="white" fill-opacity="0.1"/>
<ellipse cx="328.085" cy="176.269" rx="2.94167" ry="2.92398" fill="white" fill-opacity="0.1"/>
<ellipse cx="398.685" cy="176.269" rx="2.94167" ry="2.92398" fill="white" fill-opacity="0.1"/>
<ellipse cx="442.81" cy="176.269" rx="2.94167" ry="2.92398" fill="white" fill-opacity="0.1"/>
<ellipse cx="283.96" cy="176.269" rx="2.94167" ry="2.92398" fill="white" fill-opacity="0.1"/>
<ellipse cx="354.56" cy="176.269" rx="2.94167" ry="2.92398" fill="white" fill-opacity="0.1"/>
<ellipse cx="319.26" cy="176.269" rx="2.94167" ry="2.92398" fill="white" fill-opacity="0.1"/>
<ellipse cx="389.86" cy="176.269" rx="2.94167" ry="2.92398" fill="white" fill-opacity="0.1"/>
<ellipse cx="433.985" cy="176.269" rx="2.94167" ry="2.92398" fill="white" fill-opacity="0.1"/>
<ellipse cx="301.61" cy="176.269" rx="2.94167" ry="2.92398" fill="white" fill-opacity="0.1"/>
<ellipse cx="372.21" cy="176.269" rx="2.94167" ry="2.92398" fill="white" fill-opacity="0.1"/>
<ellipse cx="416.335" cy="176.269" rx="2.94167" ry="2.92398" fill="white" fill-opacity="0.1"/>
<ellipse cx="336.91" cy="176.269" rx="2.94167" ry="2.92398" fill="white" fill-opacity="0.1"/>
<ellipse cx="407.51" cy="176.269" rx="2.94167" ry="2.92398" fill="white" fill-opacity="0.1"/>
<ellipse cx="275.135" cy="158.725" rx="2.94167" ry="2.92398" fill="white" fill-opacity="0.1"/>
<ellipse cx="345.735" cy="158.725" rx="2.94167" ry="2.92398" fill="white" fill-opacity="0.1"/>
<ellipse cx="310.435" cy="158.725" rx="2.94167" ry="2.92398" fill="white" fill-opacity="0.1"/>
<ellipse cx="381.035" cy="158.725" rx="2.94167" ry="2.92398" fill="white" fill-opacity="0.1"/>
<ellipse cx="425.16" cy="158.725" rx="2.94167" ry="2.92398" fill="white" fill-opacity="0.1"/>
<ellipse cx="292.785" cy="158.725" rx="2.94167" ry="2.92398" fill="white" fill-opacity="0.1"/>
<ellipse cx="363.385" cy="158.725" rx="2.94167" ry="2.92398" fill="white" fill-opacity="0.1"/>
<ellipse cx="328.085" cy="158.725" rx="2.94167" ry="2.92398" fill="white" fill-opacity="0.1"/>
<ellipse cx="398.685" cy="158.725" rx="2.94167" ry="2.92398" fill="white" fill-opacity="0.1"/>
<ellipse cx="442.81" cy="158.725" rx="2.94167" ry="2.92398" fill="white" fill-opacity="0.1"/>
<ellipse cx="283.96" cy="158.725" rx="2.94167" ry="2.92398" fill="white" fill-opacity="0.1"/>
<ellipse cx="354.56" cy="158.725" rx="2.94167" ry="2.92398" fill="white" fill-opacity="0.1"/>
<ellipse cx="319.26" cy="158.725" rx="2.94167" ry="2.92398" fill="white" fill-opacity="0.1"/>
<ellipse cx="389.86" cy="158.725" rx="2.94167" ry="2.92398" fill="white" fill-opacity="0.1"/>
<ellipse cx="433.985" cy="158.725" rx="2.94167" ry="2.92398" fill="white" fill-opacity="0.1"/>
<ellipse cx="301.61" cy="158.725" rx="2.94167" ry="2.92398" fill="white" fill-opacity="0.1"/>
<ellipse cx="372.21" cy="158.725" rx="2.94167" ry="2.92398" fill="white" fill-opacity="0.1"/>
<ellipse cx="416.335" cy="158.725" rx="2.94167" ry="2.92398" fill="white" fill-opacity="0.1"/>
<ellipse cx="336.91" cy="158.725" rx="2.94167" ry="2.92398" fill="white" fill-opacity="0.1"/>
<ellipse cx="407.51" cy="158.725" rx="2.94167" ry="2.92398" fill="white" fill-opacity="0.1"/>
<ellipse cx="275.135" cy="193.813" rx="2.94167" ry="2.92398" fill="white" fill-opacity="0.1"/>
<ellipse cx="345.735" cy="193.813" rx="2.94167" ry="2.92398" fill="white" fill-opacity="0.1"/>
<ellipse cx="310.435" cy="193.813" rx="2.94167" ry="2.92398" fill="white" fill-opacity="0.1"/>
<ellipse cx="381.035" cy="193.813" rx="2.94167" ry="2.92398" fill="white" fill-opacity="0.1"/>
<ellipse cx="425.16" cy="193.813" rx="2.94167" ry="2.92398" fill="white" fill-opacity="0.1"/>
<ellipse cx="292.785" cy="193.813" rx="2.94167" ry="2.92398" fill="white" fill-opacity="0.1"/>
<ellipse cx="363.385" cy="193.813" rx="2.94167" ry="2.92398" fill="white" fill-opacity="0.1"/>
<ellipse cx="328.085" cy="193.813" rx="2.94167" ry="2.92398" fill="white" fill-opacity="0.1"/>
<ellipse cx="398.685" cy="193.813" rx="2.94167" ry="2.92398" fill="white" fill-opacity="0.1"/>
<ellipse cx="442.81" cy="193.813" rx="2.94167" ry="2.92398" fill="white" fill-opacity="0.1"/>
<ellipse cx="283.96" cy="193.813" rx="2.94167" ry="2.92398" fill="white" fill-opacity="0.1"/>
<ellipse cx="354.56" cy="193.813" rx="2.94167" ry="2.92398" fill="white" fill-opacity="0.1"/>
<ellipse cx="319.26" cy="193.813" rx="2.94167" ry="2.92398" fill="white" fill-opacity="0.1"/>
<ellipse cx="389.86" cy="193.813" rx="2.94167" ry="2.92398" fill="white" fill-opacity="0.1"/>
<ellipse cx="433.985" cy="193.813" rx="2.94167" ry="2.92398" fill="white" fill-opacity="0.1"/>
<ellipse cx="301.61" cy="193.813" rx="2.94167" ry="2.92398" fill="white" fill-opacity="0.1"/>
<ellipse cx="372.21" cy="193.813" rx="2.94167" ry="2.92398" fill="white" fill-opacity="0.1"/>
<ellipse cx="416.335" cy="193.813" rx="2.94167" ry="2.92398" fill="white" fill-opacity="0.1"/>
<ellipse cx="336.91" cy="193.813" rx="2.94167" ry="2.92398" fill="white" fill-opacity="0.1"/>
<ellipse cx="407.51" cy="193.813" rx="2.94167" ry="2.92398" fill="white" fill-opacity="0.1"/>
<ellipse cx="275.135" cy="202.585" rx="2.94167" ry="2.92398" fill="white" fill-opacity="0.1"/>
<ellipse cx="345.735" cy="202.585" rx="2.94167" ry="2.92398" fill="white" fill-opacity="0.1"/>
<ellipse cx="310.435" cy="202.585" rx="2.94167" ry="2.92398" fill="white" fill-opacity="0.1"/>
<ellipse cx="381.035" cy="202.585" rx="2.94167" ry="2.92398" fill="white" fill-opacity="0.1"/>
<ellipse cx="425.16" cy="202.585" rx="2.94167" ry="2.92398" fill="white" fill-opacity="0.1"/>
<ellipse cx="292.785" cy="202.585" rx="2.94167" ry="2.92398" fill="white" fill-opacity="0.1"/>
<ellipse cx="363.385" cy="202.585" rx="2.94167" ry="2.92398" fill="white" fill-opacity="0.1"/>
<ellipse cx="328.085" cy="202.585" rx="2.94167" ry="2.92398" fill="white" fill-opacity="0.1"/>
<ellipse cx="398.685" cy="202.585" rx="2.94167" ry="2.92398" fill="white" fill-opacity="0.1"/>
<ellipse cx="442.81" cy="202.585" rx="2.94167" ry="2.92398" fill="white" fill-opacity="0.1"/>
<ellipse cx="283.96" cy="202.585" rx="2.94167" ry="2.92398" fill="white" fill-opacity="0.1"/>
<ellipse cx="354.56" cy="202.585" rx="2.94167" ry="2.92398" fill="white" fill-opacity="0.1"/>
<ellipse cx="319.26" cy="202.585" rx="2.94167" ry="2.92398" fill="white" fill-opacity="0.1"/>
<ellipse cx="389.86" cy="202.585" rx="2.94167" ry="2.92398" fill="white" fill-opacity="0.1"/>
<ellipse cx="433.985" cy="202.585" rx="2.94167" ry="2.92398" fill="white" fill-opacity="0.1"/>
<ellipse cx="301.61" cy="202.585" rx="2.94167" ry="2.92398" fill="white" fill-opacity="0.1"/>
<ellipse cx="372.21" cy="202.585" rx="2.94167" ry="2.92398" fill="white" fill-opacity="0.1"/>
<ellipse cx="416.335" cy="202.585" rx="2.94167" ry="2.92398" fill="white" fill-opacity="0.1"/>
<ellipse cx="336.91" cy="202.585" rx="2.94167" ry="2.92398" fill="white" fill-opacity="0.1"/>
<ellipse cx="407.51" cy="202.585" rx="2.94167" ry="2.92398" fill="white" fill-opacity="0.1"/>
<ellipse cx="275.135" cy="220.129" rx="2.94167" ry="2.92398" fill="white" fill-opacity="0.1"/>
<ellipse cx="345.735" cy="220.129" rx="2.94167" ry="2.92398" fill="white" fill-opacity="0.1"/>
<ellipse cx="310.435" cy="220.129" rx="2.94167" ry="2.92398" fill="white" fill-opacity="0.1"/>
<ellipse cx="381.035" cy="220.129" rx="2.94167" ry="2.92398" fill="white" fill-opacity="0.1"/>
<ellipse cx="425.16" cy="220.129" rx="2.94167" ry="2.92398" fill="white" fill-opacity="0.1"/>
<ellipse cx="292.785" cy="220.129" rx="2.94167" ry="2.92398" fill="white" fill-opacity="0.1"/>
<ellipse cx="363.385" cy="220.129" rx="2.94167" ry="2.92398" fill="white" fill-opacity="0.1"/>
<ellipse cx="328.085" cy="220.129" rx="2.94167" ry="2.92398" fill="white" fill-opacity="0.1"/>
<ellipse cx="398.685" cy="220.129" rx="2.94167" ry="2.92398" fill="white" fill-opacity="0.1"/>
<ellipse cx="442.81" cy="220.129" rx="2.94167" ry="2.92398" fill="white" fill-opacity="0.1"/>
<ellipse cx="283.96" cy="220.129" rx="2.94167" ry="2.92398" fill="white" fill-opacity="0.1"/>
<ellipse cx="354.56" cy="220.129" rx="2.94167" ry="2.92398" fill="white" fill-opacity="0.1"/>
<ellipse cx="319.26" cy="220.129" rx="2.94167" ry="2.92398" fill="white" fill-opacity="0.1"/>
<ellipse cx="389.86" cy="220.129" rx="2.94167" ry="2.92398" fill="white" fill-opacity="0.1"/>
<ellipse cx="433.985" cy="220.129" rx="2.94167" ry="2.92398" fill="white" fill-opacity="0.1"/>
<ellipse cx="301.61" cy="220.129" rx="2.94167" ry="2.92398" fill="white" fill-opacity="0.1"/>
<ellipse cx="372.21" cy="220.129" rx="2.94167" ry="2.92398" fill="white" fill-opacity="0.1"/>
<ellipse cx="416.335" cy="220.129" rx="2.94167" ry="2.92398" fill="white" fill-opacity="0.1"/>
<ellipse cx="336.91" cy="220.129" rx="2.94167" ry="2.92398" fill="white" fill-opacity="0.1"/>
<ellipse cx="407.51" cy="220.129" rx="2.94167" ry="2.92398" fill="white" fill-opacity="0.1"/>
<ellipse cx="275.135" cy="211.357" rx="2.94167" ry="2.92398" fill="white" fill-opacity="0.1"/>
<ellipse cx="345.735" cy="211.357" rx="2.94167" ry="2.92398" fill="white" fill-opacity="0.1"/>
<ellipse cx="310.435" cy="211.357" rx="2.94167" ry="2.92398" fill="white" fill-opacity="0.1"/>
<ellipse cx="381.035" cy="211.357" rx="2.94167" ry="2.92398" fill="white" fill-opacity="0.1"/>
<ellipse cx="425.16" cy="211.357" rx="2.94167" ry="2.92398" fill="white" fill-opacity="0.1"/>
<ellipse cx="292.785" cy="211.357" rx="2.94167" ry="2.92398" fill="white" fill-opacity="0.1"/>
<ellipse cx="363.385" cy="211.357" rx="2.94167" ry="2.92398" fill="white" fill-opacity="0.1"/>
<ellipse cx="328.085" cy="211.357" rx="2.94167" ry="2.92398" fill="white" fill-opacity="0.1"/>
<ellipse cx="398.685" cy="211.357" rx="2.94167" ry="2.92398" fill="white" fill-opacity="0.1"/>
<ellipse cx="442.81" cy="211.357" rx="2.94167" ry="2.92398" fill="white" fill-opacity="0.1"/>
<ellipse cx="283.96" cy="211.357" rx="2.94167" ry="2.92398" fill="white" fill-opacity="0.1"/>
<ellipse cx="354.56" cy="211.357" rx="2.94167" ry="2.92398" fill="white" fill-opacity="0.1"/>
<ellipse cx="319.26" cy="211.357" rx="2.94167" ry="2.92398" fill="white" fill-opacity="0.1"/>
<ellipse cx="389.86" cy="211.357" rx="2.94167" ry="2.92398" fill="white" fill-opacity="0.1"/>
<ellipse cx="433.985" cy="211.357" rx="2.94167" ry="2.92398" fill="white" fill-opacity="0.1"/>
<ellipse cx="301.61" cy="211.357" rx="2.94167" ry="2.92398" fill="white" fill-opacity="0.1"/>
<ellipse cx="372.21" cy="211.357" rx="2.94167" ry="2.92398" fill="white" fill-opacity="0.1"/>
<ellipse cx="416.335" cy="211.357" rx="2.94167" ry="2.92398" fill="white" fill-opacity="0.1"/>
<ellipse cx="336.91" cy="211.357" rx="2.94167" ry="2.92398" fill="white" fill-opacity="0.1"/>
<ellipse cx="407.51" cy="211.357" rx="2.94167" ry="2.92398" fill="white" fill-opacity="0.1"/>
<ellipse cx="275.135" cy="228.901" rx="2.94167" ry="2.92398" fill="white" fill-opacity="0.1"/>
<ellipse cx="345.735" cy="228.901" rx="2.94167" ry="2.92398" fill="white" fill-opacity="0.1"/>
<ellipse cx="310.435" cy="228.901" rx="2.94167" ry="2.92398" fill="white" fill-opacity="0.1"/>
<ellipse cx="381.035" cy="228.901" rx="2.94167" ry="2.92398" fill="white" fill-opacity="0.1"/>
<ellipse cx="425.16" cy="228.901" rx="2.94167" ry="2.92398" fill="white" fill-opacity="0.1"/>
<ellipse cx="292.785" cy="228.901" rx="2.94167" ry="2.92398" fill="white" fill-opacity="0.1"/>
<ellipse cx="363.385" cy="228.901" rx="2.94167" ry="2.92398" fill="white" fill-opacity="0.1"/>
<ellipse cx="328.085" cy="228.901" rx="2.94167" ry="2.92398" fill="white" fill-opacity="0.1"/>
<ellipse cx="398.685" cy="228.901" rx="2.94167" ry="2.92398" fill="white" fill-opacity="0.1"/>
<ellipse cx="442.81" cy="228.901" rx="2.94167" ry="2.92398" fill="white" fill-opacity="0.1"/>
<ellipse cx="283.96" cy="228.901" rx="2.94167" ry="2.92398" fill="white" fill-opacity="0.1"/>
<ellipse cx="354.56" cy="228.901" rx="2.94167" ry="2.92398" fill="white" fill-opacity="0.1"/>
<ellipse cx="319.26" cy="228.901" rx="2.94167" ry="2.92398" fill="white" fill-opacity="0.1"/>
<ellipse cx="389.86" cy="228.901" rx="2.94167" ry="2.92398" fill="white" fill-opacity="0.1"/>
<ellipse cx="433.985" cy="228.901" rx="2.94167" ry="2.92398" fill="white" fill-opacity="0.1"/>
<ellipse cx="301.61" cy="228.901" rx="2.94167" ry="2.92398" fill="white" fill-opacity="0.1"/>
<ellipse cx="372.21" cy="228.901" rx="2.94167" ry="2.92398" fill="white" fill-opacity="0.1"/>
<ellipse cx="416.335" cy="228.901" rx="2.94167" ry="2.92398" fill="white" fill-opacity="0.1"/>
<ellipse cx="336.91" cy="228.901" rx="2.94167" ry="2.92398" fill="white" fill-opacity="0.1"/>
<ellipse cx="407.51" cy="228.901" rx="2.94167" ry="2.92398" fill="white" fill-opacity="0.1"/>
<circle cx="156" cy="88" r="53" fill="#E24912" fill-opacity="0.8"/>
<rect x="146.169" y="265" width="206.714" height="206.714" transform="rotate(45 146.169 265)" fill="#025EB7" fill-opacity="0.5"/>
<rect x="584.773" width="151" height="151" transform="rotate(45 584.773 0)" fill="#CF102D" fill-opacity="0.8"/>
<circle cx="146" cy="269" r="7.2766" stroke="white" stroke-opacity="0.1" stroke-width="3"/>
<circle cx="146" cy="269" r="16.9787" stroke="white" stroke-opacity="0.1" stroke-width="3"/>
<circle cx="146" cy="269" r="26.6809" stroke="white" stroke-opacity="0.1" stroke-width="3"/>
<circle cx="146" cy="269" r="36.383" stroke="white" stroke-opacity="0.1" stroke-width="3"/>
<circle cx="146" cy="269" r="46.0851" stroke="white" stroke-opacity="0.1" stroke-width="3"/>
<circle cx="146" cy="269" r="55.7872" stroke="white" stroke-opacity="0.1" stroke-width="3"/>
<circle cx="146" cy="269" r="65.4894" stroke="white" stroke-opacity="0.1" stroke-width="3"/>
<circle cx="146" cy="269.001" r="75.1915" stroke="white" stroke-opacity="0.1" stroke-width="3"/>
<circle cx="146" cy="269.001" r="84.8936" stroke="white" stroke-opacity="0.1" stroke-width="3"/>
<circle cx="146" cy="269" r="94.5957" stroke="white" stroke-opacity="0.1" stroke-width="3"/>
<circle cx="146" cy="269" r="104.298" stroke="white" stroke-opacity="0.1" stroke-width="3"/>
<circle cx="146" cy="269" r="114" stroke="white" stroke-opacity="0.1" stroke-width="3"/>
<path d="M547.218 268.671L559.698 256.266L572.179 268.671L559.698 281.076L547.218 268.671Z" stroke="black" stroke-opacity="0.4" stroke-width="8"/>
<path d="M530.577 268.671L559.698 239.725L588.819 268.671L559.698 297.617L530.577 268.671Z" stroke="black" stroke-opacity="0.4" stroke-width="8"/>
<path d="M513.937 268.671L559.698 223.184L605.46 268.671L559.698 314.157L513.937 268.671Z" stroke="black" stroke-opacity="0.4" stroke-width="8"/>
<path d="M497.296 268.671L559.698 206.644L622.1 268.671L559.698 330.698L497.296 268.671Z" stroke="black" stroke-opacity="0.4" stroke-width="8"/>
<path d="M480.656 268.671L559.698 190.103L638.741 268.671L559.698 347.238L480.656 268.671Z" stroke="black" stroke-opacity="0.4" stroke-width="8"/>
<path d="M464.015 268.671L559.698 173.563L655.382 268.671L559.698 363.779L464.015 268.671Z" stroke="black" stroke-opacity="0.4" stroke-width="8"/>
<path d="M447.375 268.671L559.698 157.022L672.022 268.671L559.698 380.319L447.375 268.671Z" stroke="black" stroke-opacity="0.4" stroke-width="8"/>
<path d="M430.734 268.671L559.698 140.482L688.663 268.671L559.698 396.86L430.734 268.671Z" stroke="black" stroke-opacity="0.4" stroke-width="8"/>
<path d="M414.093 268.671L559.698 123.941L705.303 268.671L559.698 413.4L414.093 268.671Z" stroke="black" stroke-opacity="0.4" stroke-width="8"/>
</svg>
